<svg xmlns="http://www.w3.org/2000/svg" width="104" height="104" viewBox="0 0 104 104">
    <g fill="none" fill-rule="nonzero">
        <path fill="#8AC734" d="M81.543 29.684C69.565 42.819 57.588 55.88 45.606 69.017l-17.21-15.593a1.92 1.92 0 0 0-2.025-.5c-.71.248-1.23.894-1.347 1.675-.116.78.19 1.564.794 2.03l18.623 16.867c.8.72 1.99.662 2.724-.132 12.412-13.612 24.828-27.14 37.245-40.759a2.197 2.197 0 0 0 .418-2.354c-.337-.8-1.107-1.296-1.935-1.248a1.96 1.96 0 0 0-1.35.68z"/>
        <path fill="#8BC541" d="M52 104C23.281 104 0 80.719 0 52S23.281 0 52 0s52 23.281 52 52-23.281 52-52 52zm0-4c26.51 0 48-21.49 48-48S78.51 4 52 4 4 25.49 4 52s21.49 48 48 48z"/>
    </g>
</svg>
